<svg width="211" height="151" viewBox="0 0 211 151" fill="none" xmlns="http://www.w3.org/2000/svg">
<circle cx="7.5" cy="81.5" r="3.5" stroke="#F300FC" stroke-opacity="0.4" stroke-width="2.88" stroke-linecap="round" stroke-linejoin="round" stroke-dasharray="3 10"/>
<rect x="42" y="27" width="153" height="27" rx="13.5" fill="#B983EF" fill-opacity="0.3"/>
<rect x="33" y="81" width="178" height="28" rx="14" fill="#B983EF" fill-opacity="0.3"/>
<rect x="14" y="109" width="170" height="26" rx="13" fill="#B983EF" fill-opacity="0.3"/>
<rect y="54" width="171" height="27" rx="13.5" fill="#B983EF" fill-opacity="0.3"/>
<circle cx="155.5" cy="52.5" r="32.5" stroke="#35326C" stroke-opacity="0.5" stroke-width="3" stroke-linecap="round" stroke-linejoin="round" stroke-dasharray="3 10"/>
<ellipse cx="152.5" cy="141" rx="8.5" ry="8" stroke="#270B9F" stroke-opacity="0.5" stroke-width="3" stroke-linecap="round" stroke-linejoin="round" stroke-dasharray="3 10"/>
<circle cx="81" cy="14" r="12" stroke="#2C287B" stroke-opacity="0.5" stroke-width="3" stroke-linecap="round" stroke-linejoin="round" stroke-dasharray="3 10"/>
<ellipse cx="40" cy="98.5" rx="22" ry="22.5" stroke="#3F2264" stroke-opacity="0.5" stroke-width="3" stroke-linecap="round" stroke-linejoin="round" stroke-dasharray="3 10"/>
<ellipse cx="174.5" cy="100" rx="3.5" ry="3" stroke="#F300FC" stroke-opacity="0.4" stroke-width="2.88" stroke-linecap="round" stroke-linejoin="round" stroke-dasharray="3 10"/>
<path d="M105.577 59.4126L61.6499 80.9909V134.876H149.639V80.9909L105.577 59.4126Z" fill="#300BB0"/>
<path d="M145.298 78.6249V128.86C145.298 131.056 143.501 132.853 141.304 132.853H69.8072C67.6103 132.853 65.813 131.056 65.813 128.86V66.6308C65.813 64.4345 67.6103 62.6377 69.8072 62.6377H129.113L145.298 78.6249Z" fill="white"/>
<path d="M88.581 87.7944H71.006V89.9241H88.581V87.7944Z" fill="#F2F2F2"/>
<path d="M87.6917 70.5513H70.1168V72.681H87.6917V70.5513Z" fill="#5732D9"/>
<path d="M143.302 87.7944H125.727V89.9241H143.302V87.7944Z" fill="#F2F2F2"/>
<path d="M121.333 87.7944H92.7083V89.9241H121.333V87.7944Z" fill="#F2F2F2"/>
<path d="M88.4477 94.8481H70.8727V96.9778H88.4477V94.8481Z" fill="#F2F2F2"/>
<path d="M143.169 94.8481H125.594V96.9778H143.169V94.8481Z" fill="#F2F2F2"/>
<path d="M121.2 94.8481H92.575V96.9778H121.2V94.8481Z" fill="#F2F2F2"/>
<path d="M100.697 102.835H70.8727V104.965H100.697V102.835Z" fill="#F2F2F2"/>
<path d="M143.169 102.835H125.594V104.965H143.169V102.835Z" fill="#F2F2F2"/>
<path d="M88.4477 110.822H70.8727V112.951H88.4477V110.822Z" fill="#F2F2F2"/>
<path d="M143.169 110.822H125.594V112.951H143.169V110.822Z" fill="#F2F2F2"/>
<path d="M121.2 110.822H92.575V112.951H121.2V110.822Z" fill="#F2F2F2"/>
<path d="M88.4477 118.808H70.8727V120.937H88.4477V118.808Z" fill="#F2F2F2"/>
<path d="M143.168 118.808H110.416V120.937H143.168V118.808Z" fill="#F2F2F2"/>
<path d="M103.759 118.808H92.575V120.937H103.759V118.808Z" fill="#F2F2F2"/>
<path d="M88.4477 126.794H70.8727V128.924H88.4477V126.794Z" fill="#F2F2F2"/>
<path d="M143.169 126.794H125.594V128.924H143.169V126.794Z" fill="#F2F2F2"/>
<path d="M121.2 126.794H92.575V128.924H121.2V126.794Z" fill="#F2F2F2"/>
<path d="M121.2 102.835H104.291V104.965H121.2V102.835Z" fill="#F2F2F2"/>
<path d="M129.114 74.6319V62.6377L145.299 78.6249H133.108C130.912 78.6249 129.114 76.8282 129.114 74.6319Z" fill="#E6E6E6"/>
<path d="M149.639 134.675L146.493 134.875H64.7885L61.6499 134.675L105.595 97.3774L149.639 134.675Z" fill="#663FED"/>
<path d="M61.6499 80.9907L101.719 100.666L61.6499 134.875V80.9907Z" fill="#5732D9"/>
<path d="M149.64 80.9902L109.571 100.666L149.64 134.875V80.9902Z" fill="#5732D9"/>
<path d="M61.7265 73.3024C67.6184 73.3024 72.3947 68.5273 72.3947 62.637C72.3947 56.7467 67.6184 51.9717 61.7265 51.9717C55.8345 51.9717 51.0582 56.7467 51.0582 62.637C51.0582 68.5273 55.8345 73.3024 61.7265 73.3024Z" fill="#A764EB"/>
<path d="M66.3748 67.4982C66.0652 67.7645 65.5427 68.0131 64.8064 68.2419C64.07 68.4707 63.0888 68.586 61.8619 68.586C60.9445 68.586 60.1387 68.4501 59.4455 68.1781C58.7523 67.9062 58.1707 67.5273 57.7008 67.0425C57.2308 66.5576 56.8763 65.9762 56.6371 65.2982C56.3969 64.6211 56.2769 63.8821 56.2769 63.0822C56.2769 62.2401 56.4044 61.4608 56.6605 60.7462C56.9166 60.0316 57.2871 59.4155 57.773 58.8988C58.258 58.3811 58.8508 57.976 59.5496 57.6825C60.2485 57.389 61.0402 57.2427 61.9257 57.2427C62.6301 57.2427 63.2962 57.328 63.9256 57.4987C64.555 57.6694 65.1066 57.9413 65.5821 58.3146C66.0568 58.6878 66.4329 59.1679 66.7106 59.754C66.9882 60.3411 67.1271 61.0444 67.1271 61.8659C67.1271 62.5589 67.0417 63.1694 66.871 63.6974C66.7003 64.2254 66.4817 64.668 66.2153 65.0253C65.9489 65.3826 65.6497 65.6517 65.3195 65.8337C64.9884 66.0147 64.6582 66.1056 64.3271 66.1056C63.8787 66.1056 63.5372 66.0231 63.3027 65.858C63.0682 65.693 62.9238 65.4932 62.8703 65.2579C62.6996 65.5458 62.4679 65.7511 62.1743 65.874C61.8807 65.9968 61.5477 66.0578 61.1743 66.0578C60.7578 66.0578 60.4033 65.9837 60.1097 65.8337C59.8161 65.6846 59.5759 65.4876 59.3892 65.2419C59.2026 64.9972 59.0666 64.7168 58.9812 64.4017C58.8958 64.0875 58.8536 63.7593 58.8536 63.4179C58.8536 62.9059 58.923 62.4286 59.0619 61.986C59.2007 61.5433 59.4005 61.1616 59.6622 60.8419C59.9239 60.5221 60.2382 60.2689 60.6059 60.0823C60.9736 59.8957 61.3873 59.8019 61.846 59.8019C62.2193 59.8019 62.5448 59.8844 62.8224 60.0494C63.1001 60.2145 63.2971 60.4677 63.4143 60.809L63.6226 59.9613H64.8711L64.0391 63.9131C63.9753 64.201 63.9434 64.3932 63.9434 64.4889C63.9434 64.5958 63.9837 64.6727 64.0635 64.7205C64.1432 64.7683 64.2257 64.7927 64.3111 64.7927C64.4921 64.7927 64.6788 64.7346 64.8711 64.6164C65.0634 64.4992 65.2388 64.3257 65.3992 64.0969C65.5596 63.8681 65.69 63.5802 65.7913 63.2332C65.8926 62.8872 65.9433 62.4839 65.9433 62.0253C65.9433 61.3642 65.8495 60.7987 65.6628 60.3298C65.4761 59.861 65.2069 59.4793 64.8542 59.1858C64.5025 58.8922 64.0785 58.6765 63.5823 58.5377C63.086 58.399 62.5288 58.3296 61.9097 58.3296C61.195 58.3296 60.5627 58.4655 60.013 58.7375C59.4633 59.0094 59.0047 59.3639 58.6369 59.8019C58.2692 60.2389 57.9888 60.7378 57.7965 61.2976C57.6042 61.8575 57.5085 62.4258 57.5085 63.0016C57.5085 64.4307 57.8978 65.5186 58.6763 66.265C59.4549 67.0115 60.5487 67.3847 61.9566 67.3847C62.8956 67.3847 63.7014 67.3097 64.373 67.1606C65.0456 67.0115 65.5465 66.8146 65.8776 66.5689L66.3748 67.4982ZM61.4145 64.7946C61.8947 64.7946 62.2784 64.5658 62.5664 64.1063C62.8543 63.6477 62.9988 63.0616 62.9988 62.3461C62.9988 61.9091 62.905 61.5733 62.7183 61.338C62.5317 61.1035 62.2568 60.9863 61.8938 60.9863C61.4238 60.9863 61.0271 61.1785 60.7016 61.5621C60.3761 61.9456 60.2138 62.5646 60.2138 63.4179C60.2138 63.8662 60.302 64.2076 60.4783 64.442C60.6537 64.6774 60.9661 64.7946 61.4145 64.7946Z" fill="white"/>
<path d="M144.094 68.7514L155.2 64.4911L169.921 45.2554L145.386 54.4212L144.094 68.7514Z" fill="#5E3BDB"/>
<path d="M125.628 50.6779L177.411 38.2842L160.623 84.5017L152.068 59.9403L168.855 46.2562L145.354 56.7134L125.628 50.6779Z" fill="#A764EB"/>
<path d="M94.0575 37.6689L95.0009 40.7234H98.0554L95.5842 42.6116L96.5288 45.666L94.0575 43.7778L91.5862 45.666L92.5296 42.6116L90.0583 40.7234H93.1129L94.0575 37.6689Z" fill="#A764EB"/>
<path d="M81.4461 52.4326L82.0269 54.3124H83.9068L82.386 55.4741L82.9669 57.3539L81.4461 56.1921L79.9254 57.3539L80.5062 55.4741L78.9855 54.3124H80.8653L81.4461 52.4326Z" fill="#A764EB"/>
</svg>
